<?xml version="1.0" encoding="iso-8859-1"?>
<!-- Uploaded to: SVG Repo, www.svgrepo.com, Generator: SVG Repo Mixer Tools -->
<svg fill="#FFFFFF" height="800px" width="800px" version="1.1" id="Layer_1" xmlns="http://www.w3.org/2000/svg" xmlns:xlink="http://www.w3.org/1999/xlink" 
	 viewBox="0 0 512 512" xml:space="preserve">
<g>
	<g>
		<path d="M511.442,264.222c-4.199-38.281-34.277-69.577-72.114-74.72c-1.989-0.27-3.968-0.437-5.942-0.556l5.911-60.956
			C449.906,61.557,398.218,0,330.234,0H183.184C115.183,0,63.49,61.553,74.265,129.282l4.846,59.634
			c-2.137,0.116-4.282,0.293-6.437,0.585c-37.845,5.144-67.922,36.44-72.123,74.728c-2.859,26.221,5.57,51.462,22.797,69.513
			c21.378,22.368,33.311,49.645,33.311,77.517v8.619c0,27.247,21.901,49.451,49.067,49.451h0.939v21.338
			c0,11.782,9.551,21.333,21.333,21.333c11.782,0,21.333-9.551,21.333-21.333v-21.338h213.333v21.338
			c0,11.782,9.551,21.333,21.333,21.333c11.782,0,21.333-9.551,21.333-21.333v-21.365c27.709-0.589,50.005-23.524,50.005-51.471
			v-6.571c0-27.872,11.933-55.149,33.3-77.506C505.886,315.677,514.326,290.425,511.442,264.222z M170.663,298.667H341.33v34.667
			c0,4.41-3.59,8-8,8H178.663c-4.41,0-8-3.59-8-8V298.667z M183.184,42.667h147.051c41.582,0,73.438,37.939,66.761,79.912
			l-7.349,75.424c-12.804,6.587-23.737,16.419-31.743,28.498c-6.301,8.841-11.079,18.818-13.844,29.494H167.934
			c-2.765-10.675-7.542-20.65-13.841-29.49c-7.936-11.981-18.756-21.747-31.433-28.34l-6.065-73.977
			C109.724,80.603,141.583,42.667,183.184,42.667z M457.779,304.286c-28.644,29.97-45.111,67.612-45.111,106.974v6.571
			c0,4.874-3.906,8.832-8.427,8.832H105.724c-3.47,0-6.4-2.971-6.4-6.784v-8.619c0-39.361-16.467-77.003-45.122-106.985
			c-8.482-8.887-12.74-21.639-11.239-35.406c2.076-18.923,17.142-34.6,35.447-37.088c15.472-2.097,30.904,5.963,40.345,18.646
			c0.878,1.355,1.692,2.761,2.419,4.224l1.423,2.445c2.779,4.118,4.732,11.57,5.398,21.041v55.198
			c0,27.974,22.693,50.667,50.667,50.667H333.33c27.974,0,50.667-22.693,50.667-50.667v-55.235
			c0.692-9.507,2.635-16.914,5.394-21.003l1.418-2.434c0.573-1.152,1.201-2.266,1.868-3.351
			c9.383-13.227,25.121-21.669,40.914-19.529c18.296,2.487,33.362,18.164,35.44,37.101
			C470.543,282.628,466.283,295.375,457.779,304.286z"/>
	</g>
</g>
</svg>