<?xml version="1.0" encoding="iso-8859-1"?>
<!-- Uploaded to: SVG Repo, www.svgrepo.com, Generator: SVG Repo Mixer Tools -->
<svg fill="#FFFFFF" height="800px" width="800px" version="1.1" id="Layer_1" xmlns="http://www.w3.org/2000/svg" xmlns:xlink="http://www.w3.org/1999/xlink" 
	 viewBox="0 0 512 512" xml:space="preserve">
<g>
	<g>
		<g>
			<path d="M494.933,85.958H17.067C7.641,85.958,0,93.599,0,103.025c0,4.721,0,287.957,0,305.951
				c0,9.425,7.641,17.067,17.067,17.067h205.239c9.425,0,17.067-7.641,17.067-17.067c0-9.116,0-224.489,0-233.597h183.206v233.597
				c0,9.425,7.641,17.067,17.067,17.067h55.288c9.425,0,17.067-7.641,17.067-17.067c0-16.695,0-296.778,0-305.951
				C512,93.599,504.359,85.958,494.933,85.958z M205.239,391.909H34.133V284.922h171.106V391.909z M205.239,250.482H34.133v-75.102
				h171.106V250.482z M477.867,391.909h-21.155V175.378h21.155V391.909z M477.867,141.246c-17.809,0-425.925,0-443.733,0v-21.155
				h443.733V141.246z"/>
			<path d="M90.864,229.997h57.644c9.425,0,17.067-7.641,17.067-17.067s-7.641-17.067-17.067-17.067H90.864
				c-9.425,0-17.067,7.641-17.067,17.067S81.439,229.997,90.864,229.997z"/>
			<path d="M90.864,355.482h57.644c9.425,0,17.067-7.641,17.067-17.067s-7.641-17.067-17.067-17.067H90.864
				c-9.425,0-17.067,7.641-17.067,17.067C73.797,347.841,81.439,355.482,90.864,355.482z"/>
		</g>
	</g>
</g>
</svg>