<?xml version="1.0" encoding="iso-8859-1"?>
<!-- Uploaded to: SVG Repo, www.svgrepo.com, Generator: SVG Repo Mixer Tools -->
<svg fill="#FFFFFF" height="800px" width="800px" version="1.1" id="Layer_1" xmlns="http://www.w3.org/2000/svg" xmlns:xlink="http://www.w3.org/1999/xlink" 
	 viewBox="0 0 512 512" xml:space="preserve">
<g>
	<g>
		<path d="M460.28,365.732L460.252,23.27C460.251,10.418,449.832,0,436.98,0H23.273C10.42,0,0,10.42,0,23.273v413.736
			C0,478.358,33.64,512,74.988,512h362.021C478.358,512,512,478.358,512,437.009C512,403.782,490.269,375.549,460.28,365.732z
			 M413.707,46.545l0.028,315.473H356.87l-0.028-315.473H413.707z M310.297,46.545l0.028,315.473h-56.897L253.4,46.545H310.297z
			 M206.854,46.545l0.029,315.473h-56.899l-0.028-315.473H206.854z M74.988,465.454c-15.683,0-28.442-12.761-28.442-28.445
			s12.76-28.445,28.442-28.445c15.684,0,28.445,12.761,28.445,28.445C103.433,452.693,90.672,465.454,74.988,465.454z
			 M74.988,362.018c-10.065,0-19.665,2.008-28.442,5.62V46.545h56.866l0.029,315.473H74.988z M437.009,465.455h-292.65
			c3.613-8.778,5.62-18.381,5.62-28.445s-2.006-19.667-5.62-28.445h292.65c15.684,0,28.445,12.761,28.445,28.445
			S452.693,465.455,437.009,465.455z"/>
	</g>
</g>
</svg>